<!DOCTYPE svg PUBLIC "-//W3C//DTD SVG 1.1//EN" "http://www.w3.org/Graphics/SVG/1.1/DTD/svg11.dtd">
<!-- Uploaded to: SVG Repo, www.svgrepo.com, Transformed by: SVG Repo Mixer Tools -->
<svg width="800px" height="800px" viewBox="0 0 2050.00 2050.00" data-name="Layer 3" id="Layer_3" xmlns="http://www.w3.org/2000/svg" fill="#000000">
<g id="SVGRepo_bgCarrier" stroke-width="0">
<rect x="0" y="0" width="2050.00" height="2050.00" rx="1025" fill="#fff" strokewidth="0"/>
</g>
<g id="SVGRepo_tracerCarrier" stroke-linecap="round" stroke-linejoin="round"/>
<g id="SVGRepo_iconCarrier">
<defs>
<style>.cls-1{fill:#e0e1e2;}.cls-2{fill:#2e3a58;}.cls-3{fill:#1682fc;}</style>
</defs>
<title/>
<path class="cls-1" d="M1542,1432.6H508a85.6,85.6,0,0,1-85.6-85.6v35.8a85.6,85.6,0,0,0,85.6,85.6H1542a85.6,85.6,0,0,0,85.6-85.6V1347A85.6,85.6,0,0,1,1542,1432.6Z"/>
<path class="cls-2" d="M1542,1483.4H508a100.7,100.7,0,0,1-100.6-100.6v-752A100.8,100.8,0,0,1,508,530.1H1542a100.8,100.8,0,0,1,100.6,100.7v752A100.7,100.7,0,0,1,1542,1483.4ZM508,560.1a70.7,70.7,0,0,0-70.6,70.7v752a70.7,70.7,0,0,0,70.6,70.6H1542a70.7,70.7,0,0,0,70.6-70.6v-752a70.7,70.7,0,0,0-70.6-70.7Z"/>
<rect class="cls-1" height="40.52" width="992.6" x="536.9" y="1232.2"/>
<path class="cls-3" d="M851.4,1180.8a14.9,14.9,0,0,1-14.7-12.5l-69.2-415-62,120.9a15.1,15.1,0,0,1-13.4,8.2H545.5a15,15,0,0,1,0-30H683l78.5-153.1a15,15,0,0,1,28.2,4.3l57.1,343.2,17.1-194.1A14.9,14.9,0,0,1,878.8,839h123.3l45.8-79a15,15,0,0,1,27.1,2.5l45.1,126.1,35.6-48.1a15.1,15.1,0,0,1,12.1-6h69.4l46.3-120.1a15,15,0,0,1,28.6,1.9l71.9,302.8,10.1-177.3a15,15,0,0,1,14.9-14.2h120.6a15,15,0,0,1,0,30H1423.2l-15.1,265.8a15,15,0,0,1-29.6,2.6l-84.4-355.7-32.7,84.6a14.8,14.8,0,0,1-13.9,9.6h-72.2L1127.5,929a15,15,0,0,1-26.2-3.9L1057.6,803l-33.9,58.5a14.7,14.7,0,0,1-12.9,7.5H892.5l-26.1,298.1a15,15,0,0,1-14.4,13.7Z"/>
<rect class="cls-3" height="30" width="57.6" x="589.5" y="1184"/>
<path class="cls-3" d="M1592.7,1336.2h-60a5.1,5.1,0,0,1-5-5,5,5,0,0,1,5-5h60a5,5,0,0,1,5,5A5,5,0,0,1,1592.7,1336.2Zm-120,0h-60a5.1,5.1,0,0,1-5-5,5,5,0,0,1,5-5h60a5,5,0,0,1,5,5A5,5,0,0,1,1472.7,1336.2Zm-120,0h-60a5.1,5.1,0,0,1-5-5,5,5,0,0,1,5-5h60a5,5,0,0,1,5,5A5,5,0,0,1,1352.7,1336.2Zm-120,0h-60a5.1,5.1,0,0,1-5-5,5,5,0,0,1,5-5h60a5,5,0,0,1,5,5A5,5,0,0,1,1232.7,1336.2Zm-120,0h-60a5.1,5.1,0,0,1-5-5,5,5,0,0,1,5-5h60a5,5,0,0,1,5,5A5,5,0,0,1,1112.7,1336.2Zm-120,0h-60a5.1,5.1,0,0,1-5-5,5,5,0,0,1,5-5h60a5,5,0,0,1,5,5A5,5,0,0,1,992.7,1336.2Zm-120,0h-60a5.1,5.1,0,0,1-5-5,5,5,0,0,1,5-5h60a5,5,0,0,1,5,5A5,5,0,0,1,872.7,1336.2Zm-120,0h-60a5.1,5.1,0,0,1-5-5,5,5,0,0,1,5-5h60a5,5,0,0,1,5,5A5,5,0,0,1,752.7,1336.2Zm-120,0h-60a5.1,5.1,0,0,1-5-5,5,5,0,0,1,5-5h60a5,5,0,0,1,5,5A5,5,0,0,1,632.7,1336.2Zm-120,0h-60a5.1,5.1,0,0,1-5-5,5,5,0,0,1,5-5h60a5,5,0,0,1,5,5A5,5,0,0,1,512.7,1336.2Z"/>
<rect class="cls-3" height="39.69" width="39.7" x="529.3" y="1376.1"/>
<rect class="cls-3" height="39.69" width="39.7" x="610.1" y="1376.1"/>
<path class="cls-1" d="M545.5,1468.4H730.4a0,0,0,0,1,0,0v52.1a35.7,35.7,0,0,1-35.7,35.7H581.3a35.7,35.7,0,0,1-35.7-35.7v-52.1A0,0,0,0,1,545.5,1468.4Z"/>
<path class="cls-1" d="M1371.8,1468.4h113.4a35.7,35.7,0,0,1,35.7,35.7v52.1a0,0,0,0,1,0,0H1336.1a0,0,0,0,1,0,0v-52.1A35.7,35.7,0,0,1,1371.8,1468.4Z" transform="translate(2857 3024.6) rotate(-180)"/>
<path class="cls-2" d="M694.7,1571.2H581.3a50.8,50.8,0,0,1-50.8-50.7v-52.1a15,15,0,0,1,15-15H730.4a15,15,0,0,1,15,15v52.1A50.7,50.7,0,0,1,694.7,1571.2Zm-134.2-87.8v37.1a20.8,20.8,0,0,0,20.8,20.7H694.7a20.7,20.7,0,0,0,20.7-20.7v-37.1Z"/>
<path class="cls-2" d="M1485.2,1571.2H1371.8a50.7,50.7,0,0,1-50.7-50.7v-52.1a15,15,0,0,1,15-15H1521a15,15,0,0,1,15,15v52.1A50.8,50.8,0,0,1,1485.2,1571.2Zm-134.1-87.8v37.1a20.7,20.7,0,0,0,20.7,20.7h113.4a20.8,20.8,0,0,0,20.8-20.7v-37.1Z"/>
<path class="cls-2" d="M1529.6,1287.7H536.9a15,15,0,0,1-15-15V631.3a15,15,0,0,1,15-15h992.7a15,15,0,0,1,15,15v641.4A15,15,0,0,1,1529.6,1287.7Zm-977.7-30h962.7V646.3H551.9Z"/>
</g>
</svg>