<!DOCTYPE svg PUBLIC "-//W3C//DTD SVG 1.1//EN" "http://www.w3.org/Graphics/SVG/1.1/DTD/svg11.dtd">
<!-- Uploaded to: SVG Repo, www.svgrepo.com, Transformed by: SVG Repo Mixer Tools -->
<svg width="800px" height="800px" viewBox="0 0 2050.00 2050.00" data-name="Layer 3" id="Layer_3" xmlns="http://www.w3.org/2000/svg" fill="#000000">
<g id="SVGRepo_bgCarrier" stroke-width="0">
<rect x="0" y="0" width="2050.00" height="2050.00" rx="1025" fill="#fff" strokewidth="0"/>
</g>
<g id="SVGRepo_tracerCarrier" stroke-linecap="round" stroke-linejoin="round"/>
<g id="SVGRepo_iconCarrier">
<defs>
<style>.cls-1{fill:#1682fc;}.cls-2{fill:#e0e1e2;}.cls-3{fill:#2e3a58;}</style>
</defs>
<title/>
<path class="cls-1" d="M842.5,1288l-27.4-.3H802.5c-119.1,0-237.2-60.2-315.8-161.1-38.2-49-64.6-105.4-76.5-163-13.1-63.3-8.9-126.2,12.4-186.9s58.5-98.1,111.3-113c64.2-18.1,147.4.8,247.4,56.1,70.8,39.1,124.1,82.4,126.3,84.3a15,15,0,0,1,2.2,21.1l-28.5,34.8a14.9,14.9,0,0,1-10.1,5.5,15.2,15.2,0,0,1-11-3.3A881.4,881.4,0,0,0,744.4,785c-40.7-22.5-78-38.1-110.9-46.3-31.4-7.9-58.2-8.9-79.3-2.9-28.7,8.1-48,28.9-60.9,65.6-16.7,47.7-19.9,97.1-9.7,147,9.6,46.4,31.1,92,62.2,132,33.7,43.2,77.2,78.4,125.9,101.6s103.7,34.2,155.2,29.5a15,15,0,0,1,15.8,18.8c-2.1,7.8-1.8,15.9,23.4,29a15,15,0,0,1-5.6,28.2C856.8,1287.9,850.5,1288,842.5,1288ZM584.9,686.9a154.6,154.6,0,0,0-42.9,5.6c-42.8,12-73.5,43.7-91.1,94-19.5,55.5-23.3,113-11.3,171,10.9,53.1,35.4,105.2,70.8,150.5,72.9,93.7,182.1,149.6,292.1,149.6h15.6a43.7,43.7,0,0,1-5.6-15.4c-51.5,1.7-104.3-9.7-153.8-33.3a384.7,384.7,0,0,1-136.5-110.3c-34-43.5-57.4-93.5-67.9-144.4A301.9,301.9,0,0,1,465,791.5c8-22.8,18.4-40.7,31.7-54.8A106.7,106.7,0,0,1,546,706.9c51.6-14.5,125.2,3.4,212.9,51.8,48.6,26.8,89.3,56.3,108.5,70.9l9.5-11.6a938.7,938.7,0,0,0-110.1-72.1C695.8,706.6,634.8,686.9,584.9,686.9Z"/>
<path class="cls-1" d="M923.6,830.2a14.8,14.8,0,0,1-6.8-1.6,15,15,0,0,1-8-10.7c-4.2-23.1-9.3-58.8-9.3-97.3-.1-125.1,52.5-176.1,96.6-196.8l1.1-.5c54.2-23.3,114.8-23.9,180.3-1.7,49.3,16.7,101.4,46.4,154.9,88.3,69.7,54.5,123.7,115.5,143.6,139.2a15,15,0,0,1-15.3,24.2,710.3,710.3,0,0,0-72.4-15.2,14.9,14.9,0,0,1-8.5-4.4c-30.9-32.2-62.2-60.7-93.3-84.9-46.8-36.6-91.5-62.3-132.8-76.2-47.4-16-90.2-16.1-127-.5-18.4,8.8-31.7,24.2-40.6,47.1-8.2,21.4-12.5,48.5-12.5,80.6-.1,23.1,2.1,48.1,6.3,74.3a15,15,0,0,1-9.1,16.3c-14.3,5.9-27.9,12-40.6,18.3A15.5,15.5,0,0,1,923.6,830.2Zm161.8-294.7a191.4,191.4,0,0,0-76.4,15.4h-.1c-65.7,30.8-79.4,109.2-79.4,169.6a506,506,0,0,0,5.6,72.6l13.4-6a473.7,473.7,0,0,1-4.9-67.5c0-35.8,4.9-66.5,14.6-91.3,11.8-30.5,30.1-51.3,55.9-63.5l.5-.3c43.9-18.7,93.9-18.9,148.7-.4,44.5,15,92.1,42.2,141.7,80.9,31,24.2,62.2,52.5,92.9,84.2,8.1,1.3,16.2,2.7,24.2,4.3-26.1-28.1-63.9-65.4-108.1-100.1-50.9-39.8-100.1-67.9-146.1-83.5C1139.2,540.3,1111.6,535.5,1085.4,535.5Z"/>
<path class="cls-2" d="M1428.3,1303.4c-88.4,7.2-171.2,1.7-244.2-9.7-206.8-32.1-335.3-244.2-265.3-441.5A263.4,263.4,0,0,1,938.9,808c-24.8,11.3-38.4,19.4-38.4,19.4-69.1,84.3-71.8,250.2-70.2,421.4,0,0,237.8,124.6,541.8,100.1a105,105,0,0,0,65.9-30.7c6.9-7,13.5-14.2,19.7-21.6A102.3,102.3,0,0,1,1428.3,1303.4Z"/>
<path class="cls-1" d="M952.5,1290.9a5.1,5.1,0,0,1-5-4.4c-1.9-16.3-3.5-32.6-4.8-48.6a4.9,4.9,0,0,1,4.5-5.4,5,5,0,0,1,5.4,4.6c1.3,15.8,2.9,32.1,4.9,48.2a5.1,5.1,0,0,1-4.4,5.6Zm-8.2-108.3a5,5,0,0,1-5-4.8c-.3-11.2-.5-22.4-.5-33.3,0-9,.1-18.1.3-27a5.1,5.1,0,0,1,5-4.9h.2a5,5,0,0,1,4.8,5.2c-.2,8.7-.3,17.7-.3,26.7,0,10.8.2,21.9.5,33a5,5,0,0,1-4.8,5.1Zm3.2-119.9h-.4a5,5,0,0,1-4.6-5.4c1.8-20.4,4.3-40.5,7.4-59.9a4.9,4.9,0,0,1,5.7-4.1,5,5,0,0,1,4.2,5.7c-3.1,19.1-5.5,39.1-7.3,59.2A4.9,4.9,0,0,1,947.5,1062.7Zm19.1-118.3h-1.2a5.1,5.1,0,0,1-3.7-6.1c4.9-20,10.6-39.6,16.9-58a5.1,5.1,0,0,1,6.4-3.1,5,5,0,0,1,3.1,6.3c-6.3,18.2-11.9,37.4-16.6,57.2A5,5,0,0,1,966.6,944.4Zm39.3-113.1a5.4,5.4,0,0,1-2.1-.5,5,5,0,0,1-2.4-6.7c16.8-35.2,30.4-52,31-52.7a4.9,4.9,0,0,1,7-.7,4.9,4.9,0,0,1,.7,7c-.2.3-13.5,16.9-29.7,50.7A4.9,4.9,0,0,1,1005.9,831.3Z"/>
<path class="cls-1" d="M990,884.6a5,5,0,0,1-4.8-3.9,4.9,4.9,0,0,1,3.7-6c.2-.1,23.1-5.4,59-12.5a4.9,4.9,0,0,1,5.9,3.9,5.1,5.1,0,0,1-3.9,5.9c-35.8,7.1-58.5,12.4-58.7,12.4Zm118-23.5a5,5,0,0,1-.9-9.9c20.1-3.5,40.1-6.7,59.4-9.5a5,5,0,0,1,5.7,4.2,5.1,5.1,0,0,1-4.2,5.7c-19.3,2.8-39.2,6-59.2,9.4Zm408.5-4.3a4.6,4.6,0,0,1-2-.5c-13.5-6-30.1-10.9-49.3-14.5a5,5,0,1,1,1.9-9.8c19.9,3.7,37.3,8.8,51.5,15.2a5.1,5.1,0,0,1,2.5,6.6A5,5,0,0,1,1516.5,856.8Zm-289.7-13a5,5,0,0,1-.6-10c20.8-2.4,40.9-4.3,60-5.8a5,5,0,1,1,.8,9.9c-19,1.5-39,3.5-59.6,5.9Zm179.8-8.4h-.3c-11.5-.6-23.7-.9-36.4-.9l-23.2.3a4.9,4.9,0,0,1-5.1-4.9,5,5,0,0,1,4.8-5.1l23.5-.3c12.8,0,25.3.3,36.9.9a4.9,4.9,0,0,1,4.7,5.2A5,5,0,0,1,1406.6,835.4Z"/>
<path class="cls-1" d="M1317,1276.5c-7.6,0-15.2,0-22.8-.2a5,5,0,0,1-4.9-5.1,5,5,0,0,1,5.1-4.9c7.5.2,15.1.2,22.6.2,12.3,0,24.8-.2,37.1-.7h.2a5,5,0,0,1,.2,10C1342.1,1276.3,1329.5,1276.5,1317,1276.5Zm-82.6-3.5h-.4c-19.9-1.7-40.1-4.1-59.9-7a5,5,0,0,1-4.3-5.6,5.1,5.1,0,0,1,5.7-4.3c19.7,2.9,39.7,5.2,59.3,6.9a5.1,5.1,0,0,1,4.6,5.4A5,5,0,0,1,1234.4,1273Zm179.7-1.5a5.1,5.1,0,0,1-5-4.5,5,5,0,0,1,4.5-5.5c19.8-2.1,39.6-4.9,59-8.3a5,5,0,0,1,1.8,9.8c-19.7,3.5-39.8,6.3-59.8,8.4Zm-298.4-15.8h-1c-19.7-4.1-39.5-8.8-58.7-14a5,5,0,1,1,2.6-9.6c19,5.1,38.6,9.7,58.1,13.8a5,5,0,0,1,3.9,5.9A5.1,5.1,0,0,1,1115.7,1255.7Zm-115.9-31.3-1.6-.3c-35.7-12.1-55.7-21.5-56.5-21.8a5,5,0,0,1-2.4-6.7,4.9,4.9,0,0,1,6.6-2.4c.2.1,20.4,9.5,55.5,21.4a5,5,0,0,1-1.6,9.8Z"/>
<path class="cls-3" d="M1292.1,1367.1a1078.6,1078.6,0,0,1-134.8-8.6,1158.9,1158.9,0,0,1-174.2-36c-97.8-28.2-157.3-59.1-159.8-60.4a14.7,14.7,0,0,1-8-13.1c-.8-82.5-.7-169.4,8.7-245.3,10.5-84.6,31.8-145.4,64.9-185.8a14.5,14.5,0,0,1,4-3.4c2.7-1.6,68.7-40.3,174.9-68a827.3,827.3,0,0,1,188-26.9,759.5,759.5,0,0,1,229.1,29.2,14.9,14.9,0,0,1,7.5,5c39.3,48.2,68.2,152.5,70.2,253.5,1.2,60.2-6.5,116.9-23,168.6-19.2,60.1-49.8,111.5-91,152.9a119.9,119.9,0,0,1-75.3,35Q1333.1,1367.1,1292.1,1367.1ZM845.2,1239.5c19.2,9.1,71.9,32.8,147,54.4a1122.2,1122.2,0,0,0,169.4,34.9,1022.2,1022.2,0,0,0,209.3,5.1,89.9,89.9,0,0,0,56.5-26.3c37.8-37.9,65.9-85.3,83.6-140.8,15.5-48.5,22.8-102,21.6-158.9-1.5-78.2-22.8-181.5-60.6-231.6a731.1,731.1,0,0,0-215.5-26.7,796.3,796.3,0,0,0-181.2,25.9c-91.4,23.8-152.6,56.7-164.9,63.5-28.5,36-47,91.1-56.6,168.4C844.9,1078.7,844.6,1160.8,845.2,1239.5Z"/>
</g>
</svg>