<svg xmlns="http://www.w3.org/2000/svg" version="1.1" xmlns:xlink="http://www.w3.org/1999/xlink" xmlns:svgjs="http://svgjs.com/svgjs" width="1437" height="560" preserveAspectRatio="none" viewBox="0 0 1437 560"><g mask="url(&quot;#SvgjsMask2251&quot;)" fill="none"><rect width="1437" height="560" x="0" y="0" fill="url(#SvgjsLinearGradient2252)"></rect><path d="M1437 0L1249.04 0L1437 110.8z" fill="rgba(255, 255, 255, .1)"></path><path d="M1249.04 0L1437 110.8L1437 156.25L943.75 0z" fill="rgba(255, 255, 255, .075)"></path><path d="M943.75 0L1437 156.25L1437 344.66999999999996L572.53 0z" fill="rgba(255, 255, 255, .05)"></path><path d="M572.53 0L1437 344.66999999999996L1437 432.09999999999997L187.10999999999996 0z" fill="rgba(255, 255, 255, .025)"></path><path d="M0 560L117.01 560L0 363.11z" fill="rgba(0, 0, 0, .1)"></path><path d="M0 363.11L117.01 560L221.60000000000002 560L0 331.1z" fill="rgba(0, 0, 0, .075)"></path><path d="M0 331.1L221.60000000000002 560L711.77 560L0 155.55z" fill="rgba(0, 0, 0, .05)"></path><path d="M0 155.55L711.77 560L902.71 560L0 71.98000000000002z" fill="rgba(0, 0, 0, .025)"></path></g><defs><mask id="SvgjsMask2251"><rect width="1437" height="560" fill="#ffffff"></rect></mask><linearGradient x1="15.26%" y1="-39.15%" x2="84.74%" y2="139.15%" gradientUnits="userSpaceOnUse" id="SvgjsLinearGradient2252"><stop stop-color="rgba(237, 89, 15, 1)" offset="0"></stop><stop stop-color="rgba(224, 77, 1, 1)" offset="1"></stop></linearGradient></defs></svg>