<svg xmlns="http://www.w3.org/2000/svg" version="1.1" xmlns:xlink="http://www.w3.org/1999/xlink" xmlns:svgjs="http://svgjs.com/svgjs" width="1432" height="560" preserveAspectRatio="none" viewBox="0 0 1432 560"><g mask="url(&quot;#SvgjsMask1052&quot;)" fill="none"><rect width="1432" height="560" x="0" y="0" fill="rgba(224, 77, 1, 1)"></rect><path d="M0,469.295C109.766,459.796,216.795,533.356,322.238,501.412C442.067,465.11,553.901,389.815,617.79,282.135C684.493,169.712,699.514,31.446,677.533,-97.415C655.862,-224.457,583.556,-335.201,496.306,-430.052C410.935,-522.861,311.426,-623.485,185.624,-632.176C63,-640.647,-30.709,-531.795,-139.165,-473.953C-223.617,-428.913,-315.968,-400.37,-380.891,-330.044C-447.142,-258.279,-479.322,-166.213,-509.129,-73.202C-544.336,36.658,-596.493,148.05,-570.097,260.354C-541.588,381.651,-477.184,517.592,-360.192,560.47C-241.501,603.97,-125.94,480.194,0,469.295" fill="#b33e01"></path><path d="M1432 1101.028C1531.539 1101.633 1604.556 1008.185 1674.539 937.398 1732.931 878.3340000000001 1759.824 800.701 1800.501 728.289 1845.575 648.049 1920.731 580.758 1926.4769999999999 488.905 1932.672 389.88 1900.385 285.342 1832.751 212.747 1765.88 140.971 1663.717 114.5 1566.368 102.38400000000001 1478.787 91.48399999999998 1398.094 133.714 1310.969 147.80599999999998 1208.134 164.43900000000002 1084.551 121.93099999999998 1008.092 192.68200000000002 932.139 262.965 958.269 387.35900000000004 941.703 489.506 924.7860000000001 593.814 858.142 706.302 909.847 798.4590000000001 961.892 891.221 1099.319 881.133 1191.349 934.461 1277.505 984.385 1332.427 1100.423 1432 1101.028" fill="#fe6110"></path></g><defs><mask id="SvgjsMask1052"><rect width="1432" height="560" fill="#ffffff"></rect></mask></defs></svg>