<!DOCTYPE svg PUBLIC "-//W3C//DTD SVG 1.1//EN" "http://www.w3.org/Graphics/SVG/1.1/DTD/svg11.dtd">
<!-- Uploaded to: SVG Repo, www.svgrepo.com, Transformed by: SVG Repo Mixer Tools -->
<svg width="800px" height="800px" viewBox="0 0 2050.00 2050.00" data-name="Layer 3" id="Layer_3" xmlns="http://www.w3.org/2000/svg" fill="#000000">
<g id="SVGRepo_bgCarrier" stroke-width="0">
<rect x="0" y="0" width="2050.00" height="2050.00" rx="1025" fill="#fff" strokewidth="0"/>
</g>
<g id="SVGRepo_tracerCarrier" stroke-linecap="round" stroke-linejoin="round"/>
<g id="SVGRepo_iconCarrier">
<defs>
<style>.cls-1{fill:#1682fc;}.cls-2{fill:#e0e1e2;}.cls-3{fill:#2e3a58;}</style>
</defs>
<title/>
<path class="cls-1" d="M684.5,1473a15,15,0,0,1-10.6-4.4l-92.5-92.5a14.9,14.9,0,0,1,0-21.2l52.2-52.2a15.1,15.1,0,0,1,21.2,0l92.5,92.5a15.1,15.1,0,0,1,0,21.2l-52.2,52.2A15,15,0,0,1,684.5,1473Z"/>
<rect class="cls-2" height="98.14" transform="translate(-252.6 1193.8) rotate(-45)" width="95.6" x="1266.9" y="852.7"/>
<rect class="cls-2" height="58.73" transform="translate(-107.4 1185.5) rotate(-45)" width="246.6" x="1254" y="693"/>
<rect class="cls-2" height="62.26" transform="translate(-532.9 1057.5) rotate(-45)" width="717.4" x="651.4" y="1140.9"/>
<rect class="cls-2" height="249.06" transform="translate(-267.3 1090.2) rotate(-45)" width="43.5" x="1160.6" y="743.2"/>
<path class="cls-3" d="M778.5,1462.6a14.6,14.6,0,0,1-10.6-4.4L591.8,1282.1a14.9,14.9,0,0,1,0-21.2L1099,753.6a15.1,15.1,0,0,1,21.2,0l176.2,176.2a14.9,14.9,0,0,1,4.3,10.6,15.1,15.1,0,0,1-4.3,10.6L789.1,1458.2A14.7,14.7,0,0,1,778.5,1462.6ZM623.6,1271.5l154.9,154.9,486-486L1109.6,785.5Z"/>
<rect class="cls-1" height="30" transform="translate(-904.1 826.4) rotate(-45)" width="262.3" x="414.4" y="1489.5"/>
<path class="cls-3" d="M1310.9,845.3a14.7,14.7,0,0,1-10.6-4.4l-91.2-91.2a15,15,0,0,1,0-21.2l174.3-174.4a15.1,15.1,0,0,1,21.3,0l91.2,91.2a15,15,0,0,1,0,21.3L1321.5,840.9A14.7,14.7,0,0,1,1310.9,845.3Zm-70-106.2,70,70,153.2-153.2-70-70Z"/>
<path class="cls-1" d="M1554.7,740.4a15.1,15.1,0,0,1-10.6-4.4L1314,505.9a15,15,0,0,1,0-21.2l42.5-42.5a14.9,14.9,0,0,1,21.2,0l230.1,230.1a14.6,14.6,0,0,1,4.4,10.6,14.7,14.7,0,0,1-4.4,10.6L1565.3,736A14.9,14.9,0,0,1,1554.7,740.4Z"/>
<rect class="cls-3" height="60.01" transform="translate(-318.6 990.6) rotate(-45)" width="30" x="1021.4" y="849.9"/>
<rect class="cls-3" height="60.01" transform="translate(-398.2 957.6) rotate(-45)" width="30" x="941.8" y="929.5"/>
<rect class="cls-3" height="60.01" transform="translate(-477.8 924.6) rotate(-45)" width="30" x="862.2" y="1009.1"/>
<rect class="cls-3" height="60.01" transform="translate(-557.4 891.7) rotate(-45)" width="30" x="782.6" y="1088.7"/>
<rect class="cls-3" height="60.01" transform="translate(-637 858.7) rotate(-45)" width="30" x="703" y="1168.3"/>
<path class="cls-1" d="M770,1376.3a5.1,5.1,0,0,1-3.6-1.5,5.1,5.1,0,0,1,0-7.1l42.4-42.4a5.1,5.1,0,0,1,7.1,0,5,5,0,0,1,0,7.1l-42.4,42.4A5,5,0,0,1,770,1376.3Zm84.8-84.9a5,5,0,0,1-3.5-8.5l42.4-42.4a5,5,0,0,1,7.1,0,5,5,0,0,1,0,7L858.3,1290A5,5,0,0,1,854.8,1291.4Zm84.9-84.8a5.1,5.1,0,0,1-3.6-1.5,5.1,5.1,0,0,1,0-7.1l42.5-42.4a5,5,0,0,1,7,0,5,5,0,0,1,0,7.1l-42.4,42.4A5,5,0,0,1,939.7,1206.6Zm84.8-84.9a5.2,5.2,0,0,1-3.5-1.4,5,5,0,0,1,0-7.1l42.4-42.4a5,5,0,0,1,7.1,0,5,5,0,0,1,0,7l-42.4,42.5A5.4,5.4,0,0,1,1024.5,1121.7Zm84.9-84.8a5.1,5.1,0,0,1-3.6-1.5,5.1,5.1,0,0,1,0-7.1l42.5-42.4a5,5,0,0,1,7,0,5,5,0,0,1,0,7.1l-42.4,42.4A5,5,0,0,1,1109.4,1036.9Zm84.8-84.9a5.2,5.2,0,0,1-3.5-1.4,5,5,0,0,1,0-7.1l42.4-42.4a5,5,0,0,1,7.1,0,5,5,0,0,1,0,7l-42.4,42.5A5.4,5.4,0,0,1,1194.2,952Z"/>
<path class="cls-3" d="M1315.6,985.3a15.3,15.3,0,0,1-10.6-4.4L1069.1,745a15.2,15.2,0,0,1-4.4-10.6,15,15,0,0,1,4.4-10.6l67.6-67.6a14.9,14.9,0,0,1,21.2,0l235.9,235.9a14.6,14.6,0,0,1,4.4,10.6,14.7,14.7,0,0,1-4.4,10.6l-67.6,67.6A14.9,14.9,0,0,1,1315.6,985.3ZM1101,734.4,1315.6,949l46.4-46.3L1147.3,688Z"/>
</g>
</svg>